REM DIRINDEX 1\2,1\3
REM DIRNAME cjc036,folder01,folder02
TITLE ""
FILE "NextStage_4th-Part3-P192-3.mp3" MP3
  TRACK 01 AUDIO
    TITLE "0:"
    INDEX 01 00:00:00
  TRACK 02 AUDIO
    TITLE "3:cjc036_2475"
    INDEX 01 00:00:09
  TRACK 03 AUDIO
    TITLE "0:"
    INDEX 01 00:02:38
  TRACK 04 AUDIO
    TITLE "2:cjc036_2476"
    INDEX 01 00:02:49
  TRACK 05 AUDIO
    TITLE "0:"
    INDEX 01 00:04:56
  TRACK 06 AUDIO
    TITLE "3:cjc036_2477"
    INDEX 01 00:05:30
  TRACK 07 AUDIO
    TITLE "0:"
    INDEX 01 00:07:60
  TRACK 08 AUDIO
    TITLE "2:cjc036_2478"
    INDEX 01 00:07:72
  TRACK 09 AUDIO
    TITLE "0:"
    INDEX 01 00:12:03
  TRACK 10 AUDIO
    TITLE "3:cjc036_2479"
    INDEX 01 00:12:60
  TRACK 11 AUDIO
    TITLE "0:"
    INDEX 01 00:15:13
  TRACK 12 AUDIO
    TITLE "2:cjc036_2480"
    INDEX 01 00:15:27
  TRACK 13 AUDIO
    TITLE "0:"
    INDEX 01 00:18:17
  TRACK 14 AUDIO
    TITLE "3:cjc036_2481"
    INDEX 01 00:18:66
  TRACK 15 AUDIO
    TITLE "0:"
    INDEX 01 00:21:09
  TRACK 16 AUDIO
    TITLE "2:cjc036_2482"
    INDEX 01 00:21:27
  TRACK 17 AUDIO
    TITLE "0:"
    INDEX 01 00:23:51
  TRACK 18 AUDIO
    TITLE "3:cjc036_2483"
    INDEX 01 00:24:29
  TRACK 19 AUDIO
    TITLE "0:"
    INDEX 01 00:26:58
  TRACK 20 AUDIO
    TITLE "2:cjc036_2484"
    INDEX 01 00:26:71
  TRACK 21 AUDIO
    TITLE "0:"
    INDEX 01 00:29:34
  TRACK 22 AUDIO
    TITLE "3:cjc036_2485"
    INDEX 01 00:30:10
  TRACK 23 AUDIO
    TITLE "0:"
    INDEX 01 00:32:29
  TRACK 24 AUDIO
    TITLE "2:cjc036_2486"
    INDEX 01 00:32:45
  TRACK 25 AUDIO
    TITLE "0:"
    INDEX 01 00:36:15
  TRACK 26 AUDIO
    TITLE "3:cjc036_2487"
    INDEX 01 00:36:62
  TRACK 27 AUDIO
    TITLE "0:"
    INDEX 01 00:39:15
  TRACK 28 AUDIO
    TITLE "2:cjc036_2488"
    INDEX 01 00:39:27
  TRACK 29 AUDIO
    TITLE "0:"
    INDEX 01 00:41:38
  TRACK 30 AUDIO
    TITLE "3:cjc036_2489"
    INDEX 01 00:42:19
  TRACK 31 AUDIO
    TITLE "0:"
    INDEX 01 00:44:32
  TRACK 32 AUDIO
    TITLE "2:cjc036_2490"
    INDEX 01 00:44:46
  TRACK 33 AUDIO
    TITLE "0:"
    INDEX 01 00:47:38
  TRACK 34 AUDIO
    TITLE "3:cjc036_2491"
    INDEX 01 00:48:10
  TRACK 35 AUDIO
    TITLE "0:"
    INDEX 01 00:50:33
  TRACK 36 AUDIO
    TITLE "2:cjc036_2492"
    INDEX 01 00:50:48
  TRACK 37 AUDIO
    TITLE "0:"
    INDEX 01 00:55:12
  TRACK 38 AUDIO
    TITLE "3:cjc036_2493"
    INDEX 01 00:55:59
  TRACK 39 AUDIO
    TITLE "0:"
    INDEX 01 00:57:74
  TRACK 40 AUDIO
    TITLE "2:cjc036_2494"
    INDEX 01 00:58:18
  TRACK 41 AUDIO
    TITLE "0:"
    INDEX 01 01:00:47
  TRACK 42 AUDIO
    TITLE "3:cjc036_2495"
    INDEX 01 01:01:11
  TRACK 43 AUDIO
    TITLE "0:"
    INDEX 01 01:03:43
  TRACK 44 AUDIO
    TITLE "2:cjc036_2496"
    INDEX 01 01:03:61
  TRACK 45 AUDIO
    TITLE "0:"
    INDEX 01 01:05:66
  TRACK 46 AUDIO
    TITLE "3:cjc036_2497"
    INDEX 01 01:06:42
  TRACK 47 AUDIO
    TITLE "0:"
    INDEX 01 01:08:70
  TRACK 48 AUDIO
    TITLE "2:cjc036_2498"
    INDEX 01 01:09:05
  TRACK 49 AUDIO
    TITLE "0:"
    INDEX 01 01:11:41
  TRACK 50 AUDIO
    TITLE "3:cjc036_2499"
    INDEX 01 01:12:07
  TRACK 51 AUDIO
    TITLE "0:"
    INDEX 01 01:14:31
  TRACK 52 AUDIO
    TITLE "2:cjc036_2500"
    INDEX 01 01:14:45
  TRACK 53 AUDIO
    TITLE "0:"
    INDEX 01 01:19:23
  TRACK 54 AUDIO
    TITLE "3:cjc036_2501"
    INDEX 01 01:20:02
  TRACK 55 AUDIO
    TITLE "0:"
    INDEX 01 01:22:25
  TRACK 56 AUDIO
    TITLE "2:cjc036_2502"
    INDEX 01 01:22:41
  TRACK 57 AUDIO
    TITLE "0:"
    INDEX 01 01:25:43
  TRACK 58 AUDIO
    TITLE "3:cjc036_2503"
    INDEX 01 01:26:21
  TRACK 59 AUDIO
    TITLE "0:"
    INDEX 01 01:28:55
  TRACK 60 AUDIO
    TITLE "2:cjc036_2504"
    INDEX 01 01:28:67
  TRACK 61 AUDIO
    TITLE "0:"
    INDEX 01 01:31:43
